<svg width="700" height="700" viewBox="0 0 700 700" fill="none" xmlns="http://www.w3.org/2000/svg">
<path d="M103.446 352.679L105.368 341.179C105.453 340.688 104.959 340.295 104.507 340.503C102.357 341.492 97.3025 343.428 92.8764 342.175C87.0753 340.529 88.0148 336.537 79.508 335.354L71.6452 334.255C71.2953 334.209 70.9709 334.461 70.9389 334.817L69.8462 346.179C69.8114 346.576 70.1309 346.912 70.5334 346.857C72.9946 346.534 80.9887 345.834 88.142 349.187C95.2745 352.525 101.063 353.106 102.816 353.204C103.124 353.222 103.392 352.996 103.446 352.679Z" fill="#F4A37F"/>
<path d="M116.889 135.885L143.229 110.944C143.576 110.619 144.011 110.704 144.103 111.107L145.668 118.436C145.727 118.714 145.597 119.044 145.357 119.245L118.86 141.359C118.54 141.627 118.15 141.558 118.041 141.208L116.633 136.707C116.549 136.446 116.656 136.101 116.889 135.885Z" fill="#F4A37F"/>
<path d="M590.789 199.746C597.254 201.25 601.408 207.743 601.047 209.322C600.686 210.901 596.131 208.235 589.662 206.726C583.197 205.221 577.335 205.098 577.696 203.519C578.057 201.94 584.325 198.237 590.789 199.746Z" fill="#F4A37F"/>
<path d="M563.607 388.664C565.804 390.365 566.51 393.884 565.612 398.583C564.177 406.048 558.963 414.805 552.26 418.248C553.403 420.184 554.892 422.083 556.768 423.895C560.35 427.344 564.711 428.894 569.294 428.458C567.27 420.405 565.83 410.149 569.881 405.469C571.941 403.094 575.189 402.399 579.534 403.397C585.904 404.869 587.623 408.385 587.937 411.089C588.602 416.735 583.524 423.939 576.382 427.484C574.476 428.429 572.576 429.061 570.69 429.371C572.134 434.832 573.737 439.033 573.782 439.136C573.896 439.418 573.749 439.733 573.467 439.847C573.185 439.96 572.87 439.814 572.756 439.532C572.594 439.116 570.993 434.931 569.571 429.529C564.617 430.052 559.892 428.401 556.017 424.669C554.036 422.762 552.478 420.754 551.273 418.701C550.755 418.923 550.225 419.107 549.691 419.261C544.734 420.68 539.758 418.89 535.291 414.064C533.375 412 531.776 409.795 530.45 407.524C529.759 407.791 529.053 408.006 528.331 408.152C524.708 408.903 519.149 408.293 513.245 401.179C513.052 400.947 513.085 400.599 513.318 400.406C513.551 400.213 513.898 400.246 514.091 400.479C518.494 405.781 523.347 408.07 528.118 407.088C528.732 406.955 529.334 406.785 529.922 406.562C523.359 394.402 524.787 380.584 530.149 375.371C533.098 372.508 536.7 372.75 540.032 376.021C543.633 379.554 544.574 385.718 542.579 392.514C540.897 398.224 536.927 404.445 531.432 407.095C532.695 409.234 534.232 411.322 536.085 413.323C540.315 417.883 544.789 419.52 549.385 418.209C549.845 418.08 550.285 417.923 550.736 417.733C545.474 407.769 548.467 396.932 553.324 391.3C556.702 387.4 560.649 386.375 563.607 388.664ZM551.725 417.295C558.141 414.045 563.152 405.586 564.532 398.37C565.344 394.158 564.754 390.935 562.937 389.529C560.014 387.267 556.482 389.346 554.144 392.046C549.503 397.416 546.667 407.765 551.725 417.295ZM570.408 428.324C572.226 428.029 574.06 427.429 575.894 426.525C582.654 423.169 587.466 416.451 586.847 411.228C586.45 407.864 583.836 405.523 579.282 404.474C575.362 403.57 572.48 404.148 570.706 406.19C566.954 410.52 568.418 420.477 570.408 428.324ZM530.877 406.167C536.098 403.693 539.897 397.713 541.513 392.228C543.395 385.829 542.553 380.074 539.254 376.83C536.366 373.986 533.39 373.757 530.9 376.187C526.369 380.577 524.119 393.884 530.877 406.167Z" fill="#F4A37F"/>
<path d="M322.904 445C399.119 445 460.904 383.215 460.904 307C460.904 230.785 399.119 169 322.904 169C246.689 169 184.904 230.785 184.904 307C184.904 383.215 246.689 445 322.904 445Z" fill="#EBF2F7"/>
<path d="M251.128 355.222C267.352 355.222 280.505 342.07 280.505 325.845C280.505 309.62 267.352 296.468 251.128 296.468C234.903 296.468 221.75 309.62 221.75 325.845C221.75 342.07 234.903 355.222 251.128 355.222Z" fill="#A259FF"/>
<path d="M375.111 281.53C386.111 281.53 395.028 272.613 395.028 261.613C395.028 250.613 386.111 241.696 375.111 241.696C364.111 241.696 355.194 250.613 355.194 261.613C355.194 272.613 364.111 281.53 375.111 281.53Z" fill="#0ACF83"/>
<path d="M388.555 394.06C398.18 394.06 405.982 386.258 405.982 376.633C405.982 367.008 398.18 359.206 388.555 359.206C378.93 359.206 371.128 367.008 371.128 376.633C371.128 386.258 378.93 394.06 388.555 394.06Z" fill="#73E6FF"/>
<path d="M252.621 283.446H393.035V372.075C393.035 377.025 389.022 381.038 384.072 381.038H261.584C256.634 381.038 252.621 377.025 252.621 372.075V283.446Z" fill="#FF7262"/>
<path d="M393.035 283.446L325.67 236.624C323.961 235.437 321.695 235.437 319.986 236.624L252.621 283.446H393.035Z" fill="#FF7262"/>
<path d="M252.621 283.446L321.691 331.452C322.375 331.927 323.281 331.927 323.965 331.452L393.035 283.446H252.621Z" fill="#FF3F25"/>
<path d="M274.375 234.725C274.375 230.326 277.942 226.759 282.342 226.759H362.691C367.091 226.759 370.658 230.326 370.658 234.725V299L322.119 332.756L274.375 298.573V234.725Z" fill="white"/>
<path d="M378.346 368.092L324.189 325.728C323.1 324.876 321.569 324.883 320.487 325.744L267.31 368.092" stroke="#F44343" stroke-width="3.98336" stroke-linecap="round"/>
<path d="M330.06 332.841L322.367 326.684L315.039 332.654L330.06 332.841Z" fill="#FF7262"/>
<path d="M358.679 286.509H285.983C284.608 286.509 283.493 287.624 283.493 288.999C283.493 290.374 284.608 291.488 285.983 291.488H358.679C360.054 291.488 361.169 290.374 361.169 288.999C361.169 287.624 360.054 286.509 358.679 286.509Z" fill="#C9DBEC"/>
<path d="M301.418 239.705H287.476C285.276 239.705 283.493 241.488 283.493 243.688V257.63C283.493 259.83 285.276 261.613 287.476 261.613H301.418C303.618 261.613 305.401 259.83 305.401 257.63V243.688C305.401 241.488 303.618 239.705 301.418 239.705Z" fill="#F24E1E"/>
<path d="M346.729 266.592H285.983C284.608 266.592 283.493 267.707 283.493 269.082C283.493 270.457 284.608 271.571 285.983 271.571H346.729C348.104 271.571 349.218 270.457 349.218 269.082C349.218 267.707 348.104 266.592 346.729 266.592Z" fill="#C9DBEC"/>
<path d="M326.812 276.551H285.983C284.608 276.551 283.493 277.666 283.493 279.041C283.493 280.416 284.608 281.53 285.983 281.53H326.812C328.187 281.53 329.302 280.416 329.302 279.041C329.302 277.666 328.187 276.551 326.812 276.551Z" fill="#C9DBEC"/>
<path d="M304.904 296.468H285.983C284.608 296.468 283.493 297.583 283.493 298.958C283.493 300.333 284.608 301.447 285.983 301.447H304.904C306.279 301.447 307.393 300.333 307.393 298.958C307.393 297.583 306.279 296.468 304.904 296.468Z" fill="#0ACF83"/>
<path d="M222.207 243.729L227.659 259.041L169.968 191.406L222.207 243.729Z" fill="#0069B5"/>
<path d="M190.46 261.349C191.319 263.929 194.454 264.908 196.629 263.276L247.465 225.149C249.834 223.372 249.505 219.724 246.857 218.399L168.451 179.196C166.071 178.006 163.439 180.288 164.281 182.813L190.46 261.349Z" fill="#1ABCFE"/>
<path d="M222.207 243.729L227.658 259.041L233.657 235.504L169.553 183.526L222.207 243.729Z" fill="#008EF4"/>
<path d="M490.299 327.012C469.807 350.584 427.088 339.119 427.088 339.119L436.574 328.206C420.003 313.801 417.181 289.906 430.28 274.838C443.379 259.769 467.433 259.238 484.005 273.643C500.576 288.048 503.398 311.943 490.299 327.012Z" fill="#A259FF"/>
<path d="M476.942 284.892C475.585 283.712 473.527 283.856 472.348 285.213L471.357 286.352C466.169 283.763 459.7 284.871 455.716 289.454L447.171 299.285L443.008 298.992L443.002 298.987C442.273 298.882 441.535 299.15 441.045 299.713C440.261 300.615 440.357 301.991 441.259 302.776L464.198 322.716C465.1 323.5 466.476 323.404 467.261 322.502C467.75 321.939 467.913 321.17 467.701 320.457L466.832 316.376L475.378 306.545C479.362 301.963 479.558 295.403 476.273 290.625L477.263 289.486C478.443 288.129 478.299 286.071 476.942 284.892ZM448.027 311.536C446.458 313.341 446.651 316.092 448.456 317.661C450.261 319.23 453.012 319.038 454.581 317.233L448.027 311.536Z" fill="#4B30BB"/>
</svg>
